<svg width="512" height="512" viewBox="0 0 512 512" fill="none" xmlns="http://www.w3.org/2000/svg">
  <rect width="512" height="512" rx="128" fill="#193323"/>
  <rect x="54" y="54" width="404" height="404" rx="104" fill="url(#g)" stroke="rgba(255,255,255,0.18)" stroke-width="14"/>
  <path d="M256 114C178.7 114 116 176.7 116 254C116 331.3 178.7 394 256 394C314.7 394 364.9 357.9 385.6 306.7H285.2V247.4H456C456.8 254.8 457.2 262.4 457.2 270.1C457.2 378.6 369.3 448 256 448C148.9 448 64 363.1 64 256C64 148.9 148.9 64 256 64C309.3 64 357.7 85.4 393 120.1L351.1 162.5C326.5 132.8 292.3 114 256 114Z" fill="#F7F3EA"/>
  <path d="M336 182C322 158 292 140 257 140C204 140 162 181 162 235C162 288 204 330 257 330C291 330 319 316 335 291H257V235H395C397 246 398 255 398 265C398 347 341 394 257 394C167 394 98 325 98 235C98 145 167 76 257 76C309 76 355 100 383 137L336 182Z" fill="#2F6B45" opacity="0.55"/>
  <path d="M346 140C323 101 291 81 256 81C314 81 363 113 389 161C374 151 359 144 346 140Z" fill="#D79642" opacity="0.92"/>
  <defs>
    <linearGradient id="g" x1="80" y1="70" x2="450" y2="445" gradientUnits="userSpaceOnUse">
      <stop stop-color="#2F6B45"/>
      <stop offset="1" stop-color="#D79642"/>
    </linearGradient>
  </defs>
</svg>
